<!-- icon666.com - MILLIONS vector ICONS FREE --><svg id="Layer_1" enable-background="new 0 0 511.992 511.992" viewBox="0 0 511.992 511.992" xmlns="http://www.w3.org/2000/svg"><g><g><g><path d="m476.127 188.015-139.453-20.266-62.365-126.364c-10.074-20.413-26.557-20.413-36.63 0l-62.363 126.364-139.457 20.266c-22.526 3.272-27.62 18.95-11.32 34.838l100.909 98.361-23.822 138.891c-3.847 22.436 9.488 32.126 29.635 21.531l124.732-65.575 124.733 65.575c20.147 10.595 33.484.904 29.637-21.531l-23.826-138.891 100.91-98.361c16.301-15.888 11.206-31.566-11.32-34.838z" fill="#ffd400"></path></g></g><path d="m510.616 196.062c-3.944-12.14-15.729-20.486-32.329-22.897l-131.649-19.132-58.875-119.293c-7.424-15.045-19.003-23.672-31.767-23.672s-24.343 8.628-31.766 23.672l-58.873 119.292-131.651 19.132c-16.602 2.411-28.385 10.757-32.33 22.896-3.944 12.14.684 25.818 12.695 37.526l95.263 92.856-22.489 131.121c-2.957 17.247 2.065 27.561 6.8 33.176 5.538 6.568 13.617 10.186 22.749 10.186 6.904 0 14.257-2.025 21.85-6.018l117.752-61.907 117.752 61.905c7.595 3.993 14.946 6.019 21.853 6.019h.001c9.133 0 17.212-3.617 22.75-10.186 4.734-5.615 9.757-15.929 6.799-33.177l-22.493-131.118 95.263-92.855c12.012-11.709 16.64-25.387 12.695-37.526zm-33.636 16.042-100.91 98.361c-3.536 3.446-5.149 8.411-4.314 13.277l23.826 138.89c.767 4.473.378 7.155.016 8.291-.905 0-3.479-.254-7.888-2.572l-124.733-65.574c-2.186-1.149-4.583-1.724-6.98-1.724s-4.796.574-6.979 1.724l-124.735 65.576c-4.404 2.315-6.977 2.57-7.883 2.57-.363-1.136-.753-3.818.015-8.291l23.822-138.891c.834-4.865-.779-9.83-4.314-13.276l-100.911-98.361c-3.255-3.172-4.515-5.572-4.887-6.701.965-.695 3.396-1.896 7.895-2.551l139.456-20.266c4.886-.709 9.108-3.778 11.294-8.205l62.364-126.365c2.01-4.074 3.902-6.016 4.862-6.719.96.703 2.854 2.645 4.864 6.72l62.365 126.364c2.186 4.427 6.408 7.496 11.294 8.205l139.454 20.266c4.498.654 6.929 1.855 7.894 2.551-.372 1.128-1.633 3.529-4.887 6.701z"></path></g></svg>